HIERARCHY
ROOT Pelvis
{
	OFFSET 0.000000 0.941512 0.000000
	CHANNELS 6 Xposition Yposition Zposition Zrotation Yrotation Xrotation 
	JOINT Pelvis_L_Hip
	{
		OFFSET 0.000000 0.000000 0.000000
		CHANNELS 3 Zrotation Yrotation Xrotation
		JOINT L_Hip
		{
			OFFSET 0.062321 -0.080322 -0.016990
			CHANNELS 3 Zrotation Yrotation Xrotation
			JOINT L_Knee
			{
				OFFSET 0.093051 -0.381305 -0.029784
				CHANNELS 3 Zrotation Yrotation Xrotation
				JOINT L_Ankle
				{
					OFFSET -0.010371 -0.431000 -0.033614
					CHANNELS 3 Zrotation Yrotation Xrotation
					End Site #name: L_Foot
					{
						OFFSET 0.069299 -0.038670 0.119418
					}
				}
			}
		}
	}
	JOINT Pelvis_R_Hip
	{
		OFFSET 0.000000 0.000000 0.000000
		CHANNELS 3 Zrotation Yrotation Xrotation
		JOINT R_Hip
		{
			OFFSET -0.055334 -0.094904 -0.002373
			CHANNELS 3 Zrotation Yrotation Xrotation
			JOINT R_Knee
			{
				OFFSET -0.064207 -0.384370 -0.019592
				CHANNELS 3 Zrotation Yrotation Xrotation
				JOINT R_Ankle
				{
					OFFSET 0.025418 -0.419734 -0.065953
					CHANNELS 3 Zrotation Yrotation Xrotation
					End Site #name: R_Foot
					{
						OFFSET -0.057233 -0.039888 0.132134
					}
				}
			}
		}
	}
	JOINT Pelvis_Spine1
	{
		OFFSET 0.000000 0.000000 0.000000
		CHANNELS 3 Zrotation Yrotation Xrotation
		JOINT Spine1
		{
			OFFSET -0.005562 0.124093 -0.043360
			CHANNELS 3 Zrotation Yrotation Xrotation
			JOINT Spine2
			{
				OFFSET 0.012244 0.139499 0.029894
				CHANNELS 3 Zrotation Yrotation Xrotation
				JOINT Spine3
				{
					OFFSET -0.002556 0.056561 0.009225
					CHANNELS 3 Zrotation Yrotation Xrotation
					JOINT Spine3_Neck
					{
						OFFSET 0.000000 0.000000 0.000000
						CHANNELS 3 Zrotation Yrotation Xrotation
						JOINT Neck
						{
							OFFSET -0.005205 0.217920 -0.024551
							CHANNELS 3 Zrotation Yrotation Xrotation
							End Site #name: Head
							{
								OFFSET 0.002365 0.091850 0.046637
							}
						}
					}
					JOINT Spine3_L_Collar
					{
						OFFSET 0.000000 0.000000 0.000000
						CHANNELS 3 Zrotation Yrotation Xrotation
						JOINT L_Collar
						{
							OFFSET 0.072225 0.116603 -0.009480
							CHANNELS 3 Zrotation Yrotation Xrotation
							JOINT L_Shoulder
							{
								OFFSET 0.115937 -0.058643 -0.021018
								CHANNELS 3 Zrotation Yrotation Xrotation
								JOINT L_Elbow
								{
									OFFSET 0.021994 -0.254722 -0.024492
									CHANNELS 3 Zrotation Yrotation Xrotation
									End Site #name: L_Wrist
									{
										OFFSET 0.048810 -0.240214 0.103329
									}
								}
							}
						}
					}
					JOINT Spine3_R_Collar
					{
						OFFSET 0.000000 0.000000 0.000000
						CHANNELS 3 Zrotation Yrotation Xrotation
						JOINT R_Collar
						{
							OFFSET -0.073372 0.120704 -0.024611
							CHANNELS 3 Zrotation Yrotation Xrotation
							JOINT R_Shoulder
							{
								OFFSET -0.108089 -0.054969 -0.020504
								CHANNELS 3 Zrotation Yrotation Xrotation
								JOINT R_Elbow
								{
									OFFSET -0.033684 -0.260739 0.009889
									CHANNELS 3 Zrotation Yrotation Xrotation
									End Site #name: R_Wrist
									{
										OFFSET -0.067980 -0.232763 0.118463
									}
								}
							}
						}
					}
				}
			}
		}
	}
}
MOTION
Frames: 10
Frame Time: 0.041667
0.000000 0.951091 0.000000 -2.911277 -1.680930 6.076001 0.000000 0.000000 0.000000 -4.689262 -1.760126 -7.657563 2.052616 -0.310840 3.506497 -0.429265 -0.128916 0.682052 0.000000 0.000000 0.000000 3.969637 0.886660 -5.573111 -1.424348 0.247187 0.342685 3.859140 8.004436 2.972842 0.000000 0.000000 0.000000 8.515752 -0.589618 -8.129692 -2.403407 0.050738 -5.227862 -0.049498 2.540716 12.920060 0.000000 0.000000 0.000000 -3.731843 2.074841 5.845396 0.000000 0.000000 0.000000 16.432078 0.887130 3.999433 -16.952826 -0.338606 -9.867806 -1.213634 -0.372374 0.708998 0.000000 0.000000 0.000000 -23.702657 0.827089 4.330748 18.080864 -0.542975 3.020805 7.842513 8.598677 -11.243981 
0.000800 0.950976 -0.000032 -2.842290 -1.719222 6.077150 0.000000 0.000000 0.000000 -4.832643 -1.748340 -7.623920 2.106269 -0.313697 3.431733 -0.511915 -0.193053 0.790614 0.000000 0.000000 0.000000 3.801697 0.906243 -5.660077 -1.432639 0.257459 0.463634 3.983874 8.165532 3.118614 0.000000 0.000000 0.000000 8.600621 -0.592137 -8.194741 -2.468183 0.060818 -5.190299 -0.047153 2.604608 13.014745 0.000000 0.000000 0.000000 -3.746057 2.079730 5.572312 0.000000 0.000000 0.000000 16.103776 1.036635 4.029326 -17.149829 -0.294735 -9.711884 -0.957781 -0.095625 1.512150 0.000000 0.000000 0.000000 -23.867891 0.818731 4.369182 18.345441 -0.528415 2.952217 7.662545 8.358187 -10.957550 
0.001267 0.950949 0.000175 -2.888462 -1.715705 5.996380 0.000000 0.000000 0.000000 -4.770819 -1.714209 -7.496711 2.041454 -0.304870 3.390389 -0.523947 -0.259665 0.773453 0.000000 0.000000 0.000000 3.828510 0.894783 -5.602606 -1.436998 0.263944 0.541065 3.967455 8.160696 3.089802 0.000000 0.000000 0.000000 8.696205 -0.605707 -8.193068 -2.466423 0.064524 -5.128972 -0.036764 2.625862 13.064030 0.000000 0.000000 0.000000 -3.684286 2.040752 5.422720 0.000000 0.000000 0.000000 15.856959 1.157845 4.057264 -17.442614 -0.188406 -9.303132 -0.754564 0.190438 2.489095 0.000000 0.000000 0.000000 -23.800741 0.802991 4.362729 18.297854 -0.543720 3.001424 7.755007 8.370825 -10.843230 
0.001950 0.950955 0.000303 -2.931669 -1.712883 5.945229 0.000000 0.000000 0.000000 -4.742793 -1.723265 -7.525739 2.010106 -0.308198 3.557381 -0.486702 -0.290026 0.690758 0.000000 0.000000 0.000000 3.835137 0.898479 -5.619328 -1.432207 0.273923 0.685815 3.928180 8.141850 3.024127 0.000000 0.000000 0.000000 8.787431 -0.614655 -8.217161 -2.455784 0.065900 -5.089245 -0.044457 2.632346 13.139901 0.000000 0.000000 0.000000 -3.583316 1.980994 5.407661 0.000000 0.000000 0.000000 15.665065 1.310040 4.116617 -17.727966 -0.079713 -8.899207 -0.586338 0.462977 3.495625 0.000000 0.000000 0.000000 -23.748660 0.725464 4.411419 18.250967 -0.532332 2.956643 7.994814 8.506079 -10.785547 
0.002728 0.950943 0.000617 -2.928783 -1.754054 5.894924 0.000000 0.000000 0.000000 -4.812215 -1.726393 -7.539344 2.019473 -0.316085 3.725470 -0.430494 -0.247807 0.616574 0.000000 0.000000 0.000000 3.785072 0.899926 -5.622633 -1.441809 0.284605 0.808115 3.897636 8.163477 2.950345 0.000000 0.000000 0.000000 8.841910 -0.612366 -8.277158 -2.471738 0.076235 -4.958444 -0.045309 2.653505 13.145228 0.000000 0.000000 0.000000 -3.522798 1.947130 5.574852 0.000000 0.000000 0.000000 15.497749 1.426913 4.154961 -17.910474 0.017056 -8.527990 -0.456427 0.733457 4.589187 0.000000 0.000000 0.000000 -23.690572 0.738110 4.390566 18.379473 -0.518244 2.903240 8.023794 8.542205 -10.824951 
0.003602 0.950858 0.000880 -2.918285 -1.751041 5.850337 0.000000 0.000000 0.000000 -4.889255 -1.723766 -7.533700 2.027315 -0.321055 3.826275 -0.417948 -0.250579 0.592891 0.000000 0.000000 0.000000 3.725975 0.896365 -5.600265 -1.464125 0.292838 0.869390 3.862150 8.179700 2.871412 0.000000 0.000000 0.000000 8.857419 -0.619743 -8.243551 -2.468646 0.079496 -4.901388 -0.010966 2.684837 13.115122 0.000000 0.000000 0.000000 -3.455364 1.907184 5.709349 0.000000 0.000000 0.000000 15.393847 1.542259 4.211255 -18.070288 0.092615 -8.237788 -0.338105 0.932843 5.366242 0.000000 0.000000 0.000000 -23.676344 0.771831 4.354990 18.537467 -0.498728 2.834265 8.037018 8.558130 -10.838334 
0.004531 0.950816 0.000897 -2.930224 -1.688807 5.875702 0.000000 0.000000 0.000000 -4.923354 -1.734105 -7.574090 2.013632 -0.319750 3.832303 -0.430204 -0.308550 0.580890 0.000000 0.000000 0.000000 3.680153 0.903035 -5.629980 -1.466004 0.294059 0.880972 3.840256 8.125768 2.863082 0.000000 0.000000 0.000000 8.864601 -0.633733 -8.167137 -2.440933 0.071173 -4.976496 0.045116 2.729287 13.119144 0.000000 0.000000 0.000000 -3.413231 1.879897 5.714138 0.000000 0.000000 0.000000 15.299626 1.705815 4.307442 -18.149020 0.130859 -8.088301 -0.243897 1.025011 5.655681 0.000000 0.000000 0.000000 -23.649142 0.797618 4.313861 18.607537 -0.473728 2.747251 8.110478 8.590473 -10.799647 
0.005435 0.950798 0.000850 -2.952311 -1.618646 5.951183 0.000000 0.000000 0.000000 -4.938763 -1.755242 -7.653911 1.990289 -0.315836 3.803152 -0.440235 -0.347955 0.575596 0.000000 0.000000 0.000000 3.629484 0.917800 -5.700633 -1.431632 0.286815 0.858490 3.832206 8.060868 2.888888 0.000000 0.000000 0.000000 8.848100 -0.635006 -8.148533 -2.399445 0.064735 -4.998877 0.084471 2.779905 13.134457 0.000000 0.000000 0.000000 -3.436222 1.891464 5.719966 0.000000 0.000000 0.000000 15.295287 1.802578 4.381197 -18.120588 0.123897 -8.105189 -0.264113 1.006001 5.595505 0.000000 0.000000 0.000000 -23.578669 0.849776 4.241048 18.593920 -0.458006 2.691792 8.136917 8.651492 -10.901590 
0.006368 0.950842 0.000868 -2.991221 -1.544877 6.009720 0.000000 0.000000 0.000000 -4.946438 -1.769288 -7.707616 1.986173 -0.313891 3.767510 -0.450944 -0.398093 0.565368 0.000000 0.000000 0.000000 3.615658 0.927943 -5.750083 -1.422324 0.283752 0.836696 3.821022 7.999700 2.906784 0.000000 0.000000 0.000000 8.821442 -0.636983 -8.115061 -2.351950 0.061160 -4.963455 0.123311 2.835371 13.123280 0.000000 0.000000 0.000000 -3.466528 1.907088 5.742537 0.000000 0.000000 0.000000 15.344256 1.785254 4.392332 -18.031319 0.088196 -8.227030 -0.242327 0.952757 5.284472 0.000000 0.000000 0.000000 -23.538612 0.910295 4.166983 18.608105 -0.427883 2.590356 8.064215 8.661105 -11.038254 
0.007500 0.950780 0.000795 -3.049545 -1.420982 6.114260 0.000000 0.000000 0.000000 -4.937641 -1.813254 -7.868683 1.983061 -0.315447 3.817677 -0.459318 -0.481865 0.531729 0.000000 0.000000 0.000000 3.632957 0.947937 -5.850146 -1.459086 0.288772 0.821652 3.802391 7.896531 2.937033 0.000000 0.000000 0.000000 8.803053 -0.647712 -8.040015 -2.286360 0.050586 -5.003990 0.166076 2.879983 13.094043 0.000000 0.000000 0.000000 -3.484160 1.914383 5.768100 0.000000 0.000000 0.000000 15.435660 1.705189 4.374502 -17.932972 0.026145 -8.453452 -0.280324 0.852460 4.848367 0.000000 0.000000 0.000000 -23.572447 0.977946 4.098814 18.620016 -0.399071 2.494489 7.974094 8.652584 -11.158457 
